<?xml version="1.0" encoding="UTF-8"?>
<svg id="Ebene_2" data-name="Ebene 2" xmlns="http://www.w3.org/2000/svg" viewBox="0 0 256 255.99777">
  <defs>
    <style>
      .cls-1 {
        fill: #d1a8ad;
        stroke-width: 0px;
      }
    </style>
  </defs>
  <g id="Ebene_1-2" data-name="Ebene 1">
    <g>
      <g id="Gruppe_5" data-name="Gruppe 5">
        <g id="Gruppe_4" data-name="Gruppe 4">
          <g id="Gruppe_3" data-name="Gruppe 3">
            <g id="Pfad_3" data-name="Pfad 3">
              <path class="cls-1" d="m127.77585,255.99777h-.00956C57.56931,255.74656.2548,198.53172.00087,128.4617-.12337,94.27042,13.09906,62.07785,37.2312,37.81466,61.36333,13.55146,93.5163.12287,127.76629,0h.41231c35.23161,0,69.17169,14.74468,93.18095,40.496,22.3382,23.80721,34.64182,54.88572,34.64045,87.50697,0,34.18856-13.33848,66.33197-37.55935,90.50779-24.21815,24.17309-56.41753,37.487-90.6648,37.487Zm-.00546-2.37553c33.61652,0,65.22066-13.06543,88.991-36.79345,23.77034-23.72529,36.86171-55.27072,36.86308-88.82581.00137-32.01508-12.07426-62.51473-34.00152-85.88233C196.06149,16.84717,162.75079,2.37553,128.1786,2.37553h-.40411c-33.61652.12014-65.17287,13.30298-88.85857,37.11565C15.23295,63.30385,2.25626,94.89843,2.3764,128.45078c.24984,68.77303,56.50354,124.92298,125.39808,125.17145h-.0041Z"/>
            </g>
          </g>
        </g>
      </g>
      <g>
        <path class="cls-1" d="m74.44958,147.81358h-3.86867c-7.00129,21.45925-11.75057,32.81599-16.08284,37.92998v1.69822h35.07163v-1.69822c-12.29605-2.24847-17.95544-17.98995-15.12012-37.92998Z"/>
        <path class="cls-1" d="m122.35828,187.44177l-33.1177-107.84664c-2.03835-6.539-3.48208-8.23721-6.62403-9.34143v-1.69822h60.63177v1.69822c-7.81204.84911-9.68033,3.4827-2.46229,27.0051l14.60553,47.97894c2.37787,7.98211,4.75575,16.55823,6.87852,25.55952h1.69883c2.37726-9.00129,4.9252-17.57741,6.8779-24.03137l7.81266-25.64579c7.81266-25.72959,2.63236-48.14901-12.22827-50.8664v-1.69822h35.07163v1.69822c-5.1803,6.11506-10.95461,21.14514-20.46549,51.71551l-19.9559,65.47255h-38.72317Z"/>
      </g>
    </g>
  </g>
</svg>